<svg id="Capa_1" enable-background="new 0 0 512 512" height="512" viewBox="0 0 512 512" width="512" xmlns="http://www.w3.org/2000/svg"><g id="XMLID_235_"><path id="XMLID_1051_" d="m325.948 206.5c-8.284 0-48.791 0-57.075 0s-15 6.716-15 15v44.352c0 8.284 6.716 15 15 15s48.791 0 57.075 0 15-6.716 15-15v-44.352c0-8.284-6.716-15-15-15z" fill="#6e6e6e"/><path id="XMLID_1050_" d="m157.201 248.922h-26.199c-17.571 0-31.867 14.295-31.867 31.866v43.146c0 8.284 6.716 15 15 15h59.934c8.284 0 15-6.716 15-15v-43.146c-.001-17.571-14.297-31.866-31.868-31.866z" fill="#6e6e6e"/><g id="XMLID_261_"><path id="XMLID_1045_" d="m157.201 248.922h-13.1v90.012h29.967c8.284 0 15-6.716 15-15v-43.146c0-17.571-14.296-31.866-31.867-31.866z" fill="#5a5a5a"/></g><g id="XMLID_962_"><path id="XMLID_1040_" d="m325.948 206.5c-4.142 0-16.34 0-28.538 0v74.352h28.538c8.284 0 15-6.716 15-15v-44.352c0-8.284-6.716-15-15-15z" fill="#5a5a5a"/></g><path id="XMLID_1034_" d="m411.588 308.934h-15.841c-1.542 0-2.882-1.103-3.187-2.62l-2.66-13.265c-3.901-19.448-21.122-33.563-40.947-33.563h-103.28c-19.826 0-37.048 14.116-40.947 33.564l-2.66 13.262c-.305 1.52-1.646 2.622-3.188 2.622h-98.466c-19.476 0-35.32 15.852-35.32 35.336v132.394c0 19.484 15.845 35.337 35.32 35.337h311.176c19.476 0 35.32-15.853 35.32-35.337v-132.394c0-19.485-15.845-35.336-35.32-35.336z" fill="#464646"/><g id="XMLID_983_"><path id="XMLID_1033_" d="m411.588 308.934h-15.841c-1.542 0-2.882-1.103-3.187-2.62l-2.66-13.265c-3.901-19.448-21.122-33.563-40.947-33.563h-51.543v252.514h114.177c19.476 0 35.32-15.853 35.32-35.337v-132.393c.001-19.485-15.844-35.336-35.319-35.336z" fill="#2d2d2d"/></g><g id="XMLID_1027_"><path id="XMLID_1032_" d="m353.634 119.849c-8.284 0-104.207 1-112.446 1-8.284 0-15 6.716-15 15v83.151c0 8.284 6.716 15 15 15h112.446c8.284 0 15-6.716 15-15v-84.151c0-8.285-6.716-15-15-15z" fill="#5a5a5a"/><path id="XMLID_1029_" d="m403.215 56.307-10.686-29.634c-5.751-15.954-21.005-26.673-37.958-26.673h-114.321c-16.951 0-32.205 10.719-37.958 26.672l-10.686 29.633c-3.188 8.836-3.188 18.569 0 27.403l10.686 29.637c5.753 15.953 21.008 26.671 37.958 26.671h114.321c16.951 0 32.205-10.719 37.957-26.672l10.687-29.634c3.187-8.836 3.187-18.569 0-27.403z" fill="#464646"/></g><g id="XMLID_1011_"><path id="XMLID_1018_" d="m297.41 469c-38.574 0-69.956-31.401-69.956-70s31.382-70 69.956-70 69.957 31.401 69.957 70-31.383 70-69.957 70zm0-110c-22.032 0-39.956 17.944-39.956 40s17.924 40 39.956 40 39.957-17.944 39.957-40-17.925-40-39.957-40z" fill="#efefef"/></g><g id="XMLID_917_"><g id="XMLID_995_"><ellipse id="XMLID_1010_" cx="297.41" cy="399" fill="#efefef" rx="14.865" ry="14.876"/></g></g><g id="XMLID_724_" fill="#e5e5e5"><path id="XMLID_352_" d="m367.367 399c0-38.598-31.383-70-69.957-70v30c22.032 0 39.957 17.945 39.957 40s-17.925 40-39.957 40v30c38.574 0 69.957-31.402 69.957-70z"/><path id="XMLID_351_" d="m312.275 399c0-8.216-6.655-14.876-14.865-14.876v29.753c8.21-.001 14.865-6.661 14.865-14.877z"/></g><g id="XMLID_952_"><path id="XMLID_348_" d="m353.634 119.849c-4.141 0-30.183.25-56.223.5v113.651h56.223c8.284 0 15-6.716 15-15v-84.151c0-8.285-6.716-15-15-15z" fill="#464646"/></g><g id="XMLID_332_"><path id="XMLID_341_" d="m403.215 56.307-10.685-29.634c-5.752-15.954-21.006-26.673-37.958-26.673h-57.162v140.016h57.161c16.951 0 32.205-10.719 37.957-26.672l10.687-29.634c3.187-8.836 3.187-18.569 0-27.403z" fill="#2d2d2d"/></g><path id="XMLID_147_" d="m259.579 85h75.663c8.284 0 15-6.716 15-15s-6.716-15-15-15h-75.663c-8.284 0-15 6.716-15 15s6.716 15 15 15z" fill="#efefef"/><g id="XMLID_241_"><path id="XMLID_44_" d="m335.242 55h-37.832v30h37.832c8.284 0 15-6.716 15-15s-6.716-15-15-15z" fill="#e5e5e5"/></g></g></svg>